<?xml version="1.0" encoding="utf-8"?>
<!-- Generator: Adobe Illustrator 15.1.0, SVG Export Plug-In . SVG Version: 6.00 Build 0)  -->
<!DOCTYPE svg PUBLIC "-//W3C//DTD SVG 1.1//EN" "http://www.w3.org/Graphics/SVG/1.1/DTD/svg11.dtd">
<svg version="1.1" id="Layer_3" xmlns="http://www.w3.org/2000/svg" xmlns:xlink="http://www.w3.org/1999/xlink" x="0px" y="0px"
	 width="100px" height="100px" viewBox="0 0 100 100" enable-background="new 0 0 100 100" xml:space="preserve">
<g>
	<polygon fill="#FFFCF5" points="22.446,80.328 66.604,50.44 22.446,20.333 	"/>
	<g>
		<path fill="#FFFFFF" d="M26.989,88.1c14.719-9.963,29.438-19.926,44.157-29.888c5.797-3.924,5.764-11.613,0-15.542
			C56.427,32.634,41.708,22.598,26.989,12.562c-5.762-3.929-13.542,1.309-13.542,7.771c0,19.998,0,39.997,0,59.995
			c0,11.607,18,11.607,18,0c0-19.998,0-39.997,0-59.995c-4.514,2.59-9.028,5.181-13.542,7.771
			C32.623,38.14,47.342,48.176,62.062,58.212c0-5.181,0-10.362,0-15.542c-14.72,9.962-29.438,19.925-44.158,29.887
			C8.351,79.022,17.346,94.626,26.989,88.1z"/>
	</g>
</g>
<g>
	<line fill="#FFFCF5" x1="77.874" y1="20.333" x2="77.874" y2="80.328"/>
	<g>
		<path fill="#FFFFFF" d="M68.874,20.333c0,19.998,0,39.997,0,59.995c0,11.607,18,11.607,18,0c0-19.998,0-39.997,0-59.995
			C86.874,8.726,68.874,8.726,68.874,20.333L68.874,20.333z"/>
	</g>
</g>
</svg>
