<?xml version="1.0" encoding="utf-8"?>
<!-- Generator: Adobe Illustrator 15.1.0, SVG Export Plug-In . SVG Version: 6.00 Build 0)  -->
<!DOCTYPE svg PUBLIC "-//W3C//DTD SVG 1.1//EN" "http://www.w3.org/Graphics/SVG/1.1/DTD/svg11.dtd">
<svg version="1.1" id="Layer_2" xmlns="http://www.w3.org/2000/svg" xmlns:xlink="http://www.w3.org/1999/xlink" x="0px" y="0px"
	 width="100px" height="100px" viewBox="0 0 100 100" enable-background="new 0 0 100 100" xml:space="preserve">
<g>
	<polygon fill="#FFFFFF" points="48.333,34.749 73.927,11.451 73.927,90 48.333,67.796 26.09,67.796 26.09,34.749 	"/>
	<g>
		<path fill="#FFFFFF" d="M54.697,41.113c8.531-7.766,17.062-15.532,25.594-23.298c-5.122-2.121-10.243-4.243-15.364-6.364
			c0,26.183,0,52.366,0,78.549c5.121-2.121,10.242-4.242,15.364-6.364c-8.094-7.021-16.187-14.042-24.28-21.063
			c-4.44-3.853-8.538-3.776-14.034-3.776c-5.295,0-10.591,0-15.886,0c3,3,6,6,9,9c0-11.016,0-22.031,0-33.047c-3,3-6,6-9,9
			c7.414,0,14.829,0,22.243,0c11.607,0,11.607-18,0-18c-7.414,0-14.829,0-22.243,0c-4.906,0-9,4.094-9,9c0,11.016,0,22.031,0,33.047
			c0,4.906,4.094,9,9,9c7.414,0,14.829,0,22.243,0c-2.121-0.879-4.243-1.758-6.364-2.636c8.531,7.401,17.062,14.803,25.593,22.204
			c5.755,4.992,15.364,1.903,15.364-6.364c0-26.184,0-52.366,0-78.549c0-8.126-9.671-11.547-15.364-6.364
			C59.031,12.853,50.5,20.619,41.969,28.385C33.368,36.214,46.135,48.907,54.697,41.113z"/>
	</g>
</g>
</svg>
